PathFileType	4	(X/Y/Z)	D:\MotionData\NordSprintingStudy\Test 2\Edited\COP_Left_Board_FP2000002.trc
DataRate	CameraRate	NumFrames	NumMarkers	Units	OrigDataRate	OrigDataStartFrame	OrigNumFrames
200.00	200.00	     47	5	mm	200.00	1588	     12696
Frame#	Time	M1			M2			M3			M4			M5			
		X1	Y1	Z1	X2	Y2	Z2	X3	Y3	Z3	X4	Y4	Z4	X5	Y5	Z5	

1588	7.935	1051.25269	1927.39453	48.76943	1034.34351	2247.75757	57.22501	1234.20789	2258.64673	56.52176	1633.44104	2280.03223	56.68214	1650.45557	1959.26257	47.29874	
1589	7.940	1051.20715	1927.40601	48.82187	1034.31616	2247.80347	57.23014	1234.17151	2258.59619	56.50882	1633.45886	2280.05615	56.65891	1650.41748	1959.23621	47.37990	
1590	7.945	1051.24170	1927.41699	48.77976	1034.34766	2247.77319	57.21915	1234.10522	2258.57520	56.63831	1633.49585	2280.06714	56.62782	1650.46143	1959.25671	47.31570	
1591	7.950	1051.19458	1927.39453	48.83577	1034.25220	2247.77124	57.33239	1234.13721	2258.57251	56.55822	1633.38586	2280.03564	56.71820	1650.38416	1959.24097	47.36866	
1592	7.955	1051.22412	1927.42810	48.77522	1034.35425	2247.80054	57.25935	1234.08130	2258.56079	56.63611	1633.43884	2280.06787	56.69150	1650.43567	1959.23584	47.32660	
1593	7.960	1051.23572	1927.41675	48.77895	1034.27332	2247.75928	57.27890	1234.13831	2258.62305	56.57279	1633.36658	2280.03125	56.76678	1650.46985	1959.25867	47.30260	
1594	7.965	1051.23352	1927.42285	48.77600	1034.34863	2247.79321	57.22167	1234.25281	2258.65479	56.43619	1633.43091	2280.06226	56.66530	1650.47302	1959.27673	47.31601	
1595	7.970	1051.28491	1927.42627	48.75547	1034.33057	2247.78320	57.24806	1234.15515	2258.60889	56.58546	1633.48889	2280.06885	56.63825	1650.50439	1959.26648	47.28617	
1596	7.975	1051.33020	1927.43347	48.67872	1034.25684	2247.77979	57.35335	1234.21643	2258.64355	56.46647	1633.42334	2280.04590	56.69908	1650.54956	1959.27649	47.24144	
1597	7.980	1051.30603	1927.45093	48.72561	1034.39270	2247.79370	57.19976	1234.33191	2258.63574	56.42011	1633.47437	2280.07275	56.67885	1650.54358	1959.27405	47.26043	
1598	7.985	1051.35535	1927.44495	48.68775	1034.41565	2247.79053	57.18390	1234.28101	2258.64136	56.44764	1633.55823	2280.08032	56.58891	1650.58533	1959.29370	47.23729	
1599	7.990	1051.28247	1927.42920	48.77596	1034.44019	2247.79956	57.16750	1234.28662	2258.64844	56.44000	1633.55286	2280.09766	56.60997	1650.54346	1959.27124	47.28910	
1600	7.995	1051.36804	1927.43115	48.69550	1034.45300	2247.79395	57.14785	1234.25562	2258.62671	56.50495	1633.59875	2280.09058	56.59060	1650.57898	1959.30310	47.23067	
1601	8.000	1051.34045	1927.43311	48.73932	1034.41016	2247.79980	57.20545	1234.29883	2258.63257	56.41965	1633.54175	2280.08521	56.60647	1650.53064	1959.26941	47.31501	
1602	8.005	1051.36438	1927.46338	48.70507	1034.49329	2247.80933	57.12338	1234.28357	2258.61719	56.51245	1633.59839	2280.08447	56.59878	1650.59302	1959.28418	47.23545	
1603	8.010	1051.31738	1927.42554	48.77525	1034.39429	2247.77710	57.25853	1234.30188	2258.64795	56.44514	1633.52075	2280.07275	56.68373	1650.55078	1959.27185	47.30033	
1604	8.015	1051.35303	1927.45398	48.69652	1034.46130	2247.79565	57.16642	1234.25488	2258.59570	56.53983	1633.56213	2280.08740	56.62448	1650.62622	1959.28113	47.22381	
1605	8.020	1051.35693	1927.42712	48.72843	1034.45056	2247.80225	57.21056	1234.31543	2258.62744	56.43514	1633.52478	2280.06396	56.67067	1650.60681	1959.26746	47.28202	
1606	8.025	1051.36414	1927.43677	48.70084	1034.46826	2247.79810	57.17259	1234.28430	2258.62183	56.48216	1633.54675	2280.07690	56.60757	1650.58459	1959.25854	47.28170	
1607	8.030	1051.34741	1927.42761	48.75272	1034.42310	2247.80127	57.26715	1234.27795	2258.59668	56.49990	1633.55164	2280.07129	56.65132	1650.57275	1959.27478	47.28228	
1608	8.035	1051.34106	1927.42590	48.74797	1034.47034	2247.81445	57.16816	1234.25439	2258.62891	56.52377	1633.56995	2280.07959	56.59486	1650.54724	1959.25500	47.30086	
1609	8.040	1051.29761	1927.43823	48.77090	1034.35938	2247.80615	57.33258	1234.28076	2258.60547	56.48852	1633.49487	2280.04443	56.71561	1650.54382	1959.25952	47.31017	
1610	8.045	1051.31140	1927.42004	48.76347	1034.27808	2247.76465	57.39640	1234.22131	2258.59497	56.55651	1633.39111	2280.02783	56.79195	1650.52515	1959.26404	47.31187	
1611	8.050	1051.30078	1927.42249	48.79758	1034.31824	2247.74048	57.31531	1234.14966	2258.58569	56.65863	1633.52051	2280.06274	56.70632	1650.47925	1959.24365	47.35312	
1612	8.055	1051.24731	1927.41162	48.81301	1034.37793	2247.77759	57.28380	1234.23474	2258.60718	56.53328	1633.45007	2280.05884	56.72786	1650.46411	1959.25049	47.37315	
1613	8.060	1051.25598	1927.41467	48.78598	1034.20667	2247.73901	57.47223	1234.18311	2258.62500	56.56588	1633.39575	2280.07202	56.76044	1650.50073	1959.23926	47.33437	
1614	8.065	1051.26868	1927.40161	48.82233	1034.31384	2247.78760	57.33031	1234.13489	2258.57935	56.62359	1633.45325	2280.04956	56.71993	1650.44910	1959.25989	47.36483	
1615	8.070	1051.23877	1927.40942	48.81797	1034.24719	2247.74756	57.36327	1234.19299	2258.61011	56.56221	1633.36389	2280.04175	56.77703	1650.40271	1959.24670	47.37885	
1616	8.075	1051.25623	1927.42737	48.80160	1034.29858	2247.76343	57.33795	1234.22266	2258.60669	56.52333	1633.43738	2280.03882	56.72902	1650.49634	1959.27502	47.30708	
1617	8.080	1051.24890	1927.41565	48.79963	1034.29126	2247.76270	57.30350	1234.14087	2258.61206	56.63267	1633.43640	2280.04761	56.71410	1650.50134	1959.26184	47.32521	
1618	8.085	1051.20300	1927.41443	48.83419	1034.32373	2247.76831	57.31934	1234.21533	2258.60400	56.53213	1633.47937	2280.06592	56.68958	1650.41443	1959.21521	47.40373	
1619	8.090	1051.27478	1927.42261	48.77588	1034.31958	2247.82764	57.33382	1234.13171	2258.60034	56.61129	1633.46106	2280.06250	56.67486	1650.47498	1959.25110	47.32930	
1620	8.095	1051.22119	1927.40149	48.80329	1034.26660	2247.76025	57.36544	1234.21289	2258.61230	56.49993	1633.41064	2280.04492	56.73876	1650.47864	1959.26086	47.35433	
1621	8.100	1051.25500	1927.42480	48.76554	1034.30725	2247.76685	57.33453	1234.17151	2258.59180	56.57175	1633.47266	2280.06055	56.71077	1650.48608	1959.26953	47.31134	
1622	8.105	1051.29932	1927.39954	48.73398	1034.24866	2247.73877	57.36188	1234.23645	2258.61646	56.49681	1633.38428	2280.05176	56.80323	1650.53027	1959.27002	47.27561	
1623	8.110	1051.27283	1927.43860	48.74144	1034.30493	2247.77808	57.34999	1234.27124	2258.61987	56.44816	1633.46960	2280.06714	56.68475	1650.51746	1959.27405	47.26961	
1624	8.115	1051.31372	1927.41638	48.75726	1034.36621	2247.77808	57.26185	1234.22131	2258.65161	56.56162	1633.55994	2280.05859	56.61225	1650.53406	1959.28284	47.29685	
1625	8.120	1051.27954	1927.43408	48.75869	1034.38879	2247.81543	57.27737	1234.30420	2258.63159	56.46080	1633.55188	2280.11328	56.63940	1650.55432	1959.27063	47.29613	
1626	8.125	1051.36475	1927.43652	48.69456	1034.36133	2247.76685	57.27609	1234.26733	2258.62158	56.47833	1633.46228	2280.04785	56.70966	1650.61353	1959.27527	47.25347	
1627	8.130	1051.33081	1927.43774	48.73175	1034.41162	2247.80688	57.23647	1234.23999	2258.60571	56.51015	1633.56628	2280.08350	56.63208	1650.57458	1959.26990	47.29802	
1628	8.135	1051.28906	1927.42407	48.79049	1034.39148	2247.81226	57.27465	1234.27588	2258.62891	56.48111	1633.55725	2280.07764	56.64507	1650.55017	1959.25269	47.31038	
1629	8.140	1051.33679	1927.44226	48.71209	1034.45215	2247.78174	57.21581	1234.21716	2258.58276	56.56516	1633.58936	2280.08960	56.61296	1650.57800	1959.26782	47.25605	
1630	8.145	1051.32446	1927.40845	48.79161	1034.37170	2247.79688	57.28834	1234.30688	2258.64404	56.45214	1633.54492	2280.08618	56.66390	1650.55615	1959.26819	47.31101	
1631	8.150	1051.34143	1927.43396	48.71060	1034.41650	2247.79102	57.18031	1234.23987	2258.61523	56.52806	1633.59399	2280.10181	56.59983	1650.58911	1959.28882	47.26361	
1632	8.155	1051.37012	1927.43176	48.69332	1034.40466	2247.79150	57.24895	1234.27771	2258.59668	56.47581	1633.42554	2280.00708	56.72917	1650.62817	1959.29358	47.22805	
1633	8.160	1051.34216	1927.43152	48.69244	1034.37695	2247.81812	57.22621	1234.29260	2258.63672	56.40083	1633.54175	2280.09399	56.60479	1650.56250	1959.27246	47.25275	
1634	8.165	1051.31946	1927.44702	48.69921	1034.37720	2247.76758	57.23711	1234.28198	2258.64697	56.47454	1633.55371	2280.06299	56.59404	1650.57104	1959.27747	47.23793	
